<?xml version="1.0" standalone="no"?>
<!DOCTYPE svg PUBLIC "-//W3C//DTD SVG 20010904//EN"
 "http://www.w3.org/TR/2001/REC-SVG-20010904/DTD/svg10.dtd">
<svg version="1.0" xmlns="http://www.w3.org/2000/svg"
 width="3000.000000pt" height="3000.000000pt" viewBox="0 0 3000.000000 3000.000000"
 preserveAspectRatio="xMidYMid meet">
<metadata>
Created by potrace 1.14, written by Peter Selinger 2001-2017
</metadata>
<g transform="translate(0.000000,3000.000000) scale(0.100000,-0.100000)"
fill="#000000" stroke="none">
<path d="M0 15000 l0 -15000 15000 0 15000 0 0 15000 0 15000 -15000 0 -15000
0 0 -15000z m11844 7110 c14 -5 30 -19 37 -32 17 -32 34 -434 20 -471 -22 -57
-43 -60 -516 -68 -512 -9 -543 -14 -609 -103 -54 -72 -22 -342 78 -656 13 -41
38 -122 56 -180 17 -58 46 -154 65 -215 18 -60 50 -171 71 -245 20 -74 54
-189 75 -255 81 -256 144 -466 180 -600 21 -77 50 -176 65 -219 14 -44 48
-152 74 -240 26 -89 62 -206 79 -261 18 -55 43 -143 57 -195 24 -90 67 -232
171 -560 25 -80 65 -212 88 -295 48 -172 114 -387 190 -625 30 -91 65 -208 78
-260 14 -52 45 -160 70 -240 98 -314 176 -568 196 -640 21 -71 96 -322 127
-420 76 -242 136 -439 154 -505 12 -44 52 -179 90 -300 132 -425 188 -611 209
-691 12 -45 33 -114 47 -155 14 -41 41 -126 59 -190 19 -64 48 -157 65 -207
35 -104 74 -240 85 -292 4 -19 24 -87 45 -150 21 -63 55 -171 75 -240 20 -69
49 -163 65 -210 16 -47 43 -137 60 -200 17 -63 46 -162 65 -220 19 -58 50
-161 70 -230 20 -69 47 -156 60 -195 21 -61 49 -155 84 -285 6 -19 28 -93 50
-165 22 -71 52 -170 66 -220 15 -49 44 -144 65 -210 21 -66 53 -172 70 -235
18 -63 45 -155 60 -205 16 -49 42 -137 60 -195 17 -58 46 -154 65 -215 39
-125 104 -346 141 -480 14 -49 41 -137 59 -195 18 -58 47 -154 65 -215 18 -60
40 -135 50 -165 10 -30 21 -77 24 -104 3 -27 11 -55 17 -62 6 -7 24 -57 40
-111 27 -90 43 -123 53 -112 17 18 123 249 141 309 12 41 42 138 65 215 23 77
57 187 75 245 18 58 45 146 59 195 37 134 102 355 141 480 19 61 48 157 65
215 18 58 44 146 60 195 15 50 42 142 60 205 17 63 49 169 70 235 21 66 50
161 65 210 14 50 44 149 66 220 22 72 44 146 50 165 35 130 63 224 84 285 13
39 40 126 60 195 20 69 51 172 70 230 19 58 48 157 65 220 17 63 44 153 60
200 16 47 45 141 65 210 20 69 54 177 75 240 21 63 41 131 45 150 11 52 50
188 85 292 17 50 46 143 65 207 18 64 45 149 59 190 14 41 35 110 47 155 21
80 77 266 209 691 38 121 78 256 90 300 18 66 78 263 154 505 31 98 106 349
127 420 20 72 98 326 196 640 25 80 56 188 70 240 13 52 48 169 78 260 76 238
142 453 190 625 23 83 63 215 88 295 104 328 147 470 171 560 14 52 39 140 57
195 17 55 53 172 79 261 26 88 60 196 74 240 15 43 44 142 65 219 36 134 99
344 180 600 21 66 55 181 75 255 21 74 53 185 71 245 19 61 48 157 65 215 18
58 43 139 56 180 100 314 132 584 78 656 -66 89 -97 94 -609 103 -473 8 -494
11 -516 68 -7 19 -7 94 -1 240 10 236 16 257 74 268 18 3 773 4 1678 3 1805
-3 1675 1 1702 -63 9 -22 12 -87 10 -235 -3 -240 -7 -264 -38 -289 -22 -17
-51 -19 -372 -24 -299 -4 -357 -8 -422 -24 -244 -63 -375 -207 -464 -513 -21
-69 -55 -179 -76 -245 -21 -66 -48 -156 -60 -200 -12 -44 -41 -141 -64 -215
-24 -74 -51 -169 -61 -210 -10 -41 -39 -142 -66 -225 -26 -82 -57 -186 -69
-230 -12 -44 -41 -141 -64 -215 -24 -74 -51 -169 -61 -210 -10 -41 -39 -142
-65 -225 -26 -82 -60 -195 -75 -250 -16 -55 -41 -138 -57 -185 -16 -47 -40
-130 -54 -185 -14 -55 -47 -172 -74 -260 -60 -194 -176 -581 -196 -650 -66
-232 -97 -335 -241 -810 -13 -44 -33 -114 -44 -155 -11 -41 -44 -154 -73 -250
-30 -96 -71 -231 -91 -300 -20 -69 -49 -165 -65 -215 -15 -49 -45 -151 -65
-225 -20 -74 -54 -189 -75 -255 -21 -66 -57 -185 -80 -265 -24 -80 -46 -152
-51 -161 -4 -8 -24 -78 -44 -155 -19 -76 -55 -202 -80 -279 -55 -176 -115
-373 -161 -535 -20 -69 -58 -199 -86 -290 -27 -91 -61 -203 -74 -250 -14 -47
-44 -148 -69 -225 -97 -313 -259 -855 -311 -1045 -26 -97 -120 -416 -154 -525
-33 -105 -88 -287 -116 -385 -36 -126 -131 -445 -211 -705 -35 -115 -75 -253
-89 -305 -13 -52 -31 -115 -39 -140 -62 -199 -107 -347 -125 -410 -12 -41 -37
-122 -55 -180 -19 -58 -47 -157 -64 -220 -16 -63 -46 -164 -66 -225 -20 -60
-51 -164 -70 -230 -19 -66 -43 -147 -55 -180 -11 -33 -39 -127 -61 -210 -22
-82 -60 -211 -83 -285 -24 -74 -54 -171 -66 -215 -12 -44 -35 -119 -51 -167
-16 -49 -45 -148 -65 -220 -19 -73 -55 -196 -79 -273 -24 -77 -58 -189 -76
-250 -35 -124 -67 -214 -82 -233 -14 -18 -1260 -18 -1274 1 -15 18 -47 108
-82 232 -18 61 -52 173 -76 250 -24 77 -60 200 -79 273 -20 72 -49 171 -65
220 -16 48 -39 123 -51 167 -12 44 -42 141 -66 215 -23 74 -61 203 -83 285
-22 83 -50 177 -61 210 -12 33 -36 114 -55 180 -19 66 -50 170 -70 230 -20 61
-50 162 -66 225 -17 63 -45 162 -64 220 -18 58 -43 139 -55 180 -18 63 -63
211 -125 410 -8 25 -26 88 -39 140 -14 52 -54 190 -89 305 -80 260 -175 579
-211 705 -28 98 -83 280 -116 385 -30 96 -126 423 -150 510 -12 44 -37 127
-55 185 -18 58 -50 161 -70 230 -21 69 -48 157 -61 197 -13 39 -41 138 -63
220 -22 81 -53 189 -69 238 -17 50 -46 146 -66 215 -19 69 -46 157 -59 195
-13 39 -39 124 -57 190 -18 66 -56 199 -86 295 -29 96 -60 200 -68 230 -8 30
-31 105 -51 165 -20 61 -54 179 -76 264 -22 85 -44 162 -48 170 -5 9 -27 81
-51 161 -23 80 -59 199 -80 265 -21 66 -55 181 -75 255 -20 74 -50 176 -65
225 -16 50 -45 146 -65 215 -20 69 -61 204 -91 300 -29 96 -62 209 -73 250
-11 41 -31 111 -44 155 -144 475 -175 578 -241 810 -20 69 -136 456 -196 650
-27 88 -60 205 -74 260 -14 55 -38 138 -54 185 -16 47 -41 130 -57 185 -15 55
-49 168 -75 250 -26 83 -55 184 -65 225 -10 41 -37 136 -61 210 -23 74 -52
171 -64 215 -12 44 -43 148 -69 230 -27 83 -56 184 -66 225 -10 41 -37 136
-61 210 -23 74 -52 171 -64 215 -12 44 -39 134 -60 200 -21 66 -55 176 -76
245 -89 306 -220 450 -464 513 -65 16 -123 20 -422 24 -321 5 -350 7 -372 24
-31 25 -35 49 -38 289 -3 251 4 275 87 293 43 10 3294 7 3319 -3z m7955 -4430
c207 -450 309 -836 312 -1175 0 -55 4 -120 7 -145 l7 -45 65 100 c232 359 356
666 483 1195 44 183 54 182 84 -15 73 -486 90 -749 74 -1126 -6 -140 -16 -285
-21 -324 -6 -38 -16 -101 -21 -140 -69 -458 -236 -899 -477 -1260 -214 -322
-440 -546 -847 -840 -234 -169 -768 -417 -1095 -509 -52 -14 -108 -31 -125
-37 -187 -65 -661 -166 -912 -196 -66 -7 -71 2 -44 88 11 35 47 152 80 259
161 518 201 653 311 1045 35 121 69 233 77 248 15 31 72 69 207 141 84 45 224
130 441 266 215 135 487 353 646 516 237 245 379 476 487 796 48 139 61 194
102 423 31 172 80 677 80 823 0 50 32 14 79 -88z m-6324 -804 c157 -27 173
-31 298 -65 216 -59 528 -199 765 -344 51 -31 95 -57 98 -57 2 0 41 -23 87
-52 45 -28 121 -75 168 -104 85 -51 191 -127 359 -258 458 -355 930 -672 1264
-847 61 -32 112 -63 114 -69 2 -5 -12 -45 -32 -88 -20 -43 -138 -418 -267
-847 -127 -423 -234 -773 -238 -777 -9 -10 -280 105 -431 183 -276 142 -666
388 -885 559 -33 25 -105 78 -160 116 -55 39 -162 115 -238 170 -443 319 -674
468 -892 576 -229 114 -453 172 -713 185 -160 7 -155 3 -200 160 -17 60 -47
162 -68 228 -20 66 -65 221 -99 345 -56 198 -137 478 -235 805 -36 121 -37
133 -6 145 19 7 327 47 491 64 22 2 182 3 355 1 290 -2 327 -4 465 -29z
m-2557 -269 c21 -22 92 -235 127 -382 8 -33 59 -202 115 -375 112 -349 119
-373 149 -480 12 -41 49 -157 82 -257 62 -188 63 -201 26 -232 -8 -6 -71 -32
-139 -56 -235 -83 -541 -245 -731 -387 -429 -320 -664 -726 -786 -1358 -51
-266 -74 -621 -70 -1103 1 -164 -1 -300 -3 -303 -12 -11 -182 322 -251 491
-108 268 -209 568 -251 745 -27 117 -54 244 -60 285 -15 90 -28 145 -35 145
-19 0 -136 -256 -185 -403 -70 -209 -106 -538 -106 -979 0 -173 -3 -218 -13
-218 -15 0 -112 215 -156 346 -17 49 -46 133 -66 187 -36 100 -121 411 -150
547 -46 216 -57 339 -62 675 -5 352 5 505 48 713 22 111 111 403 144 477 12
27 33 75 47 105 14 30 31 71 38 90 21 55 136 254 214 370 276 410 689 780
1160 1039 139 77 169 91 292 143 160 68 236 97 389 147 183 60 201 62 233 28z
m7326 -134 c-8 -27 -24 -82 -36 -123 -25 -85 -37 -71 -14 17 15 59 52 153 60
153 2 0 -2 -21 -10 -47z"/>
</g>
</svg>
