<svg width="1000" height="1000" viewBox="0 0 1000 1000" fill="none" xmlns="http://www.w3.org/2000/svg">
<rect width="1000" height="1000" fill="#1E1E1E"/>
<rect width="1000" height="1000" fill="#1D1D28"/>
<path d="M320.898 779.84H326.562L354.882 848H347.778L338.946 826.688H308.322L299.586 848H292.386L320.898 779.84ZM337.41 821.408L323.682 787.712L309.762 821.408H337.41ZM358.541 822.848C358.541 819.328 359.149 816 360.365 812.864C361.581 809.728 363.277 807.008 365.453 804.704C367.693 802.336 370.349 800.48 373.421 799.136C376.493 797.792 379.885 797.12 383.597 797.12C388.333 797.12 392.461 798.208 395.981 800.384C399.501 802.496 402.157 805.376 403.949 809.024L397.613 811.04C396.205 808.48 394.221 806.496 391.661 805.088C389.165 803.616 386.381 802.88 383.309 802.88C380.749 802.88 378.349 803.392 376.109 804.416C373.933 805.44 372.013 806.848 370.349 808.64C368.749 810.368 367.469 812.448 366.509 814.88C365.613 817.312 365.165 819.968 365.165 822.848C365.165 825.664 365.645 828.32 366.605 830.816C367.565 833.312 368.877 835.488 370.541 837.344C372.205 839.136 374.125 840.576 376.301 841.664C378.541 842.688 380.909 843.2 383.405 843.2C385.005 843.2 386.573 842.976 388.109 842.528C389.709 842.08 391.181 841.472 392.525 840.704C393.869 839.872 395.021 838.944 395.981 837.92C396.941 836.896 397.613 835.808 397.997 834.656L404.429 836.576C403.725 838.368 402.701 840.032 401.357 841.568C400.013 843.04 398.413 844.352 396.557 845.504C394.765 846.592 392.749 847.424 390.509 848C388.333 848.64 386.061 848.96 383.693 848.96C380.045 848.96 376.685 848.288 373.613 846.944C370.541 845.536 367.885 843.648 365.645 841.28C363.405 838.848 361.645 836.064 360.365 832.928C359.149 829.792 358.541 826.432 358.541 822.848ZM410.76 822.848C410.76 819.328 411.368 816 412.584 812.864C413.8 809.728 415.496 807.008 417.672 804.704C419.912 802.336 422.568 800.48 425.64 799.136C428.712 797.792 432.104 797.12 435.816 797.12C440.552 797.12 444.68 798.208 448.2 800.384C451.72 802.496 454.376 805.376 456.168 809.024L449.832 811.04C448.424 808.48 446.44 806.496 443.88 805.088C441.384 803.616 438.6 802.88 435.528 802.88C432.968 802.88 430.568 803.392 428.328 804.416C426.152 805.44 424.232 806.848 422.568 808.64C420.968 810.368 419.688 812.448 418.728 814.88C417.832 817.312 417.384 819.968 417.384 822.848C417.384 825.664 417.864 828.32 418.824 830.816C419.784 833.312 421.096 835.488 422.76 837.344C424.424 839.136 426.344 840.576 428.52 841.664C430.76 842.688 433.128 843.2 435.624 843.2C437.224 843.2 438.792 842.976 440.328 842.528C441.928 842.08 443.4 841.472 444.744 840.704C446.088 839.872 447.24 838.944 448.2 837.92C449.16 836.896 449.832 835.808 450.216 834.656L456.648 836.576C455.944 838.368 454.92 840.032 453.576 841.568C452.232 843.04 450.632 844.352 448.776 845.504C446.984 846.592 444.968 847.424 442.728 848C440.552 848.64 438.28 848.96 435.912 848.96C432.264 848.96 428.904 848.288 425.832 846.944C422.76 845.536 420.104 843.648 417.864 841.28C415.624 838.848 413.864 836.064 412.584 832.928C411.368 829.792 410.76 826.432 410.76 822.848ZM487.746 848.96C484.098 848.96 480.77 848.288 477.762 846.944C474.754 845.536 472.13 843.648 469.89 841.28C467.714 838.912 466.018 836.16 464.802 833.024C463.586 829.888 462.978 826.592 462.978 823.136C462.978 819.616 463.586 816.288 464.802 813.152C466.082 810.016 467.81 807.264 469.986 804.896C472.226 802.528 474.85 800.64 477.858 799.232C480.866 797.824 484.162 797.12 487.746 797.12C491.33 797.12 494.626 797.824 497.634 799.232C500.706 800.64 503.33 802.528 505.506 804.896C507.746 807.264 509.474 810.016 510.69 813.152C511.97 816.288 512.61 819.616 512.61 823.136C512.61 826.592 512.002 829.888 510.786 833.024C509.57 836.16 507.842 838.912 505.602 841.28C503.426 843.648 500.802 845.536 497.73 846.944C494.722 848.288 491.394 848.96 487.746 848.96ZM469.602 823.232C469.602 826.048 470.082 828.672 471.042 831.104C472.002 833.472 473.282 835.584 474.882 837.44C476.546 839.232 478.466 840.64 480.642 841.664C482.882 842.688 485.25 843.2 487.746 843.2C490.242 843.2 492.578 842.688 494.754 841.664C496.994 840.576 498.946 839.136 500.61 837.344C502.274 835.488 503.586 833.344 504.546 830.912C505.506 828.48 505.986 825.856 505.986 823.04C505.986 820.288 505.506 817.696 504.546 815.264C503.586 812.768 502.274 810.624 500.61 808.832C498.946 806.976 496.994 805.536 494.754 804.512C492.578 803.424 490.242 802.88 487.746 802.88C485.25 802.88 482.914 803.424 480.738 804.512C478.562 805.536 476.642 806.976 474.978 808.832C473.314 810.688 472.002 812.864 471.042 815.36C470.082 817.792 469.602 820.416 469.602 823.232ZM539.176 848.96C533.736 848.96 529.672 847.168 526.984 843.584C524.36 839.936 523.048 834.528 523.048 827.36V797.984H529.576V826.208C529.576 837.536 533.448 843.2 541.192 843.2C543.112 843.2 545 842.88 546.856 842.24C548.712 841.6 550.408 840.672 551.944 839.456C553.544 838.24 554.952 836.8 556.168 835.136C557.448 833.472 558.472 831.584 559.24 829.472V797.984H565.768V839.552C565.768 841.344 566.536 842.24 568.072 842.24V848C567.304 848.128 566.664 848.192 566.152 848.192C565.704 848.192 565.384 848.192 565.192 848.192C563.656 848.128 562.408 847.584 561.448 846.56C560.488 845.536 560.008 844.16 560.008 842.432V836.672C557.832 840.576 554.856 843.616 551.08 845.792C547.368 847.904 543.4 848.96 539.176 848.96ZM622.576 848H616.048V820.064C616.048 814.112 615.152 809.792 613.36 807.104C611.632 804.416 608.944 803.072 605.296 803.072C603.376 803.072 601.456 803.424 599.536 804.128C597.616 804.832 595.824 805.824 594.16 807.104C592.56 808.384 591.12 809.92 589.84 811.712C588.56 813.44 587.632 815.328 587.056 817.376V848H580.528V797.984H586.48V809.312C588.528 805.664 591.44 802.72 595.216 800.48C599.056 798.24 603.216 797.12 607.696 797.12C610.448 797.12 612.784 797.632 614.704 798.656C616.624 799.68 618.16 801.12 619.312 802.976C620.464 804.832 621.296 807.104 621.808 809.792C622.32 812.48 622.576 815.456 622.576 818.72V848ZM660.028 845.6C659.644 845.792 659.068 846.048 658.3 846.368C657.596 846.688 656.764 847.008 655.804 847.328C654.844 847.648 653.756 847.936 652.54 848.192C651.324 848.448 650.044 848.576 648.7 848.576C647.292 848.576 645.948 848.384 644.668 848C643.388 847.616 642.268 847.04 641.308 846.272C640.348 845.44 639.58 844.416 639.004 843.2C638.428 841.984 638.14 840.576 638.14 838.976V803.168H631.228V797.984H638.14V781.088H644.668V797.984H656.188V803.168H644.668V837.152C644.796 839.008 645.436 840.384 646.588 841.28C647.804 842.112 649.18 842.528 650.716 842.528C652.572 842.528 654.204 842.24 655.612 841.664C657.02 841.024 657.916 840.576 658.3 840.32L660.028 845.6ZM684.792 848.96C680.888 848.96 677.08 848.32 673.368 847.04C669.656 845.76 666.456 843.904 663.768 841.472L666.744 837.056C669.56 839.36 672.408 841.088 675.288 842.24C678.232 843.392 681.368 843.968 684.696 843.968C688.728 843.968 691.928 843.168 694.296 841.568C696.728 839.904 697.944 837.568 697.944 834.56C697.944 833.152 697.624 832 696.984 831.104C696.344 830.144 695.384 829.312 694.104 828.608C692.888 827.904 691.32 827.296 689.4 826.784C687.544 826.208 685.368 825.632 682.872 825.056C679.992 824.352 677.496 823.648 675.384 822.944C673.272 822.24 671.512 821.44 670.104 820.544C668.76 819.648 667.736 818.56 667.032 817.28C666.392 815.936 666.072 814.272 666.072 812.288C666.072 809.792 666.552 807.584 667.512 805.664C668.536 803.744 669.88 802.176 671.544 800.96C673.272 799.68 675.256 798.72 677.496 798.08C679.8 797.44 682.232 797.12 684.792 797.12C688.632 797.12 692.12 797.76 695.256 799.04C698.392 800.256 700.92 801.888 702.84 803.936L699.672 807.776C697.816 805.856 695.544 804.416 692.856 803.456C690.232 802.496 687.48 802.016 684.6 802.016C682.872 802.016 681.272 802.208 679.8 802.592C678.328 802.912 677.016 803.456 675.864 804.224C674.776 804.992 673.912 805.984 673.272 807.2C672.632 808.352 672.312 809.728 672.312 811.328C672.312 812.672 672.536 813.76 672.984 814.592C673.432 815.424 674.168 816.16 675.192 816.8C676.216 817.376 677.496 817.92 679.032 818.432C680.632 818.88 682.552 819.36 684.792 819.872C687.992 820.64 690.808 821.408 693.24 822.176C695.672 822.944 697.688 823.84 699.288 824.864C700.952 825.888 702.2 827.136 703.032 828.608C703.864 830.08 704.28 831.872 704.28 833.984C704.28 838.592 702.52 842.24 699 844.928C695.48 847.616 690.744 848.96 684.792 848.96Z" fill="white"/>
<path d="M326.068 99.34L507.112 580.714L687.31 99.34H787.984L547.72 700H466.504L225.394 99.34H326.068Z" fill="white"/>
<rect x="550.714" y="413" width="269" height="98.6638" transform="rotate(70 550.714 413)" fill="#1D1D28"/>
</svg>
